name analog
datacolumns 19
datarows 49
range 0.3135 0.3375
endheader
time	ground_force_vx	ground_force_vy	ground_force_vz	ground_force_px	ground_force_py	ground_force_pz	l_ground_force_vx	l_ground_force_vy	l_ground_force_vz	l_ground_force_px	l_ground_force_py	l_ground_force_pz	ground_torque_x	ground_torque_y	ground_torque_z	l_ground_torque_x	l_ground_torque_y	l_ground_torque_z
0.3135	-0.0	-0.0	-0.0	-0.0	-0.0	-0.0	-0.0	-0.0	-0.0	-0.0	-0.0	-0.0	-0.0	-0.0	-0.0	-0.0	-0.0	-0.0
0.314	-0.0	-0.0	-0.0	-0.0	-0.0	-0.0	-0.0	-0.0	-0.0	-0.0	-0.0	-0.0	-0.0	-0.0	-0.0	-0.0	-0.0	-0.0
0.3145	-0.0	-0.0	-0.0	-0.0	-0.0	-0.0	-0.0	-0.0	-0.0	-0.0	-0.0	-0.0	-0.0	-0.0	-0.0	-0.0	-0.0	-0.0
0.315	-0.0	-0.0	-0.0	-0.0	-0.0	-0.0	-0.0	-0.0	-0.0	-0.0	-0.0	-0.0	-0.0	-0.0	-0.0	-0.0	-0.0	-0.0
0.3155	-0.0	-0.0	-0.0	-0.0	-0.0	-0.0	-0.0	-0.0	-0.0	-0.0	-0.0	-0.0	-0.0	-0.0	-0.0	-0.0	-0.0	-0.0
0.316	-0.0	-0.0	-0.0	-0.0	-0.0	-0.0	-0.0	-0.0	-0.0	-0.0	-0.0	-0.0	-0.0	-0.0	-0.0	-0.0	-0.0	-0.0
0.3165	-0.0	-0.0	-0.0	-0.0	-0.0	-0.0	-0.0	-0.0	-0.0	-0.0	-0.0	-0.0	-0.0	-0.0	-0.0	-0.0	-0.0	-0.0
0.317	-0.0	-0.0	-0.0	-0.0	-0.0	-0.0	-0.0	-0.0	-0.0	-0.0	-0.0	-0.0	-0.0	-0.0	-0.0	-0.0	-0.0	-0.0
0.3175	-0.0	-0.0	-0.0	-0.0	-0.0	-0.0	-0.0	-0.0	-0.0	-0.0	-0.0	-0.0	-0.0	-0.0	-0.0	-0.0	-0.0	-0.0
0.318	-0.0	-0.0	-0.0	-0.0	-0.0	-0.0	-0.0	-0.0	-0.0	-0.0	-0.0	-0.0	-0.0	-0.0	-0.0	-0.0	-0.0	-0.0
0.3185	-0.0	-0.0	-0.0	-0.0	-0.0	-0.0	-0.0	-0.0	-0.0	-0.0	-0.0	-0.0	-0.0	-0.0	-0.0	-0.0	-0.0	-0.0
0.319	-0.0	-0.0	-0.0	-0.0	-0.0	-0.0	-0.0	-0.0	-0.0	-0.0	-0.0	-0.0	-0.0	-0.0	-0.0	-0.0	-0.0	-0.0
0.3195	-0.0	-0.0	-0.0	-0.0	-0.0	-0.0	-0.0	-0.0	-0.0	-0.0	-0.0	-0.0	-0.0	-0.0	-0.0	-0.0	-0.0	-0.0
0.32	-0.0	-0.0	-0.0	-0.0	-0.0	-0.0	-0.0	-0.0	-0.0	-0.0	-0.0	-0.0	-0.0	-0.0	-0.0	-0.0	-0.0	-0.0
0.3205	-0.0	-0.0	-0.0	-0.0	-0.0	-0.0	-0.0	-0.0	-0.0	-0.0	-0.0	-0.0	-0.0	-0.0	-0.0	-0.0	-0.0	-0.0
0.321	-0.0	-0.0	-0.0	-0.0	-0.0	-0.0	-0.0	-0.0	-0.0	-0.0	-0.0	-0.0	-0.0	-0.0	-0.0	-0.0	-0.0	-0.0
0.3215	-0.0	-0.0	-0.0	-0.0	-0.0	-0.0	-0.0	-0.0	-0.0	-0.0	-0.0	-0.0	-0.0	-0.0	-0.0	-0.0	-0.0	-0.0
0.322	-0.0	-0.0	-0.0	-0.0	-0.0	-0.0	-0.0	-0.0	-0.0	-0.0	-0.0	-0.0	-0.0	-0.0	-0.0	-0.0	-0.0	-0.0
0.3225	-0.0	-0.0	-0.0	-0.0	-0.0	-0.0	-0.0	-0.0	-0.0	-0.0	-0.0	-0.0	-0.0	-0.0	-0.0	-0.0	-0.0	-0.0
0.323	-0.0	-0.0	-0.0	-0.0	-0.0	-0.0	-0.0	-0.0	-0.0	-0.0	-0.0	-0.0	-0.0	-0.0	-0.0	-0.0	-0.0	-0.0
0.3235	-0.0	-0.0	-0.0	-0.0	-0.0	-0.0	-0.0	-0.0	-0.0	-0.0	-0.0	-0.0	-0.0	-0.0	-0.0	-0.0	-0.0	-0.0
0.324	-0.0	-0.0	-0.0	-0.0	-0.0	-0.0	-0.0	-0.0	-0.0	-0.0	-0.0	-0.0	-0.0	-0.0	-0.0	-0.0	-0.0	-0.0
0.3245	-0.0	-0.0	-0.0	-0.0	-0.0	-0.0	-0.0	-0.0	-0.0	-0.0	-0.0	-0.0	-0.0	-0.0	-0.0	-0.0	-0.0	-0.0
0.325	-0.0	-0.0	-0.0	-0.0	-0.0	-0.0	-0.0	-0.0	-0.0	-0.0	-0.0	-0.0	-0.0	-0.0	-0.0	-0.0	-0.0	-0.0
0.3255	-0.0	-0.0	-0.0	-0.0	-0.0	-0.0	-0.0	-0.0	-0.0	-0.0	-0.0	-0.0	-0.0	-0.0	-0.0	-0.0	-0.0	-0.0
0.326	-0.0	-0.0	-0.0	-0.0	-0.0	-0.0	-0.0	-0.0	-0.0	-0.0	-0.0	-0.0	-0.0	-0.0	-0.0	-0.0	-0.0	-0.0
0.3265	-0.0	-0.0	-0.0	-0.0	-0.0	-0.0	-0.0	-0.0	-0.0	-0.0	-0.0	-0.0	-0.0	-0.0	-0.0	-0.0	-0.0	-0.0
0.327	-0.0	-0.0	-0.0	-0.0	-0.0	-0.0	-0.0	-0.0	-0.0	-0.0	-0.0	-0.0	-0.0	-0.0	-0.0	-0.0	-0.0	-0.0
0.3275	-0.0	-0.0	-0.0	-0.0	-0.0	-0.0	-0.0	-0.0	-0.0	-0.0	-0.0	-0.0	-0.0	-0.0	-0.0	-0.0	-0.0	-0.0
0.328	-0.0	-0.0	-0.0	-0.0	-0.0	-0.0	10.325796127319336	-1.7264971733093262	-29.78249740600586	-0.0	-0.0	-0.0	-0.0	-0.0	-0.0	6334.47412109375	2697.754638671875	1430.2164306640625
0.3285	-0.0	-0.0	-0.0	-0.0	-0.0	-0.0	3.2518794536590576	5.603362560272217	-82.09227752685547	-0.0	-0.0	-0.0	-0.0	-0.0	-0.0	14873.9638671875	8874.93359375	-339.2037048339844
0.329	-0.0	-0.0	-0.0	-0.0	-0.0	-0.0	-29.180709838867188	-4.746688365936279	-141.2548828125	-0.0	-0.0	-0.0	-0.0	-0.0	-0.0	28888.66796875	14212.2265625	-8458.9912109375
0.3295	-0.0	-0.0	-0.0	21.90549659729004	-0.3448557257652282	-47.025184631347656	-56.171512603759766	-17.311050415039062	-169.44610595703125	-0.0	-0.0	-0.0	-0.0	-0.0	-0.0	33501.5546875	17141.935546875	-14820.619140625
0.33	-0.0	-0.0	-0.0	12.408018112182615	2.7941932678222656	-104.59264373779295	-62.69047164916992	-29.003734588623047	-184.3948211669922	-0.0	-0.0	-0.0	-0.0	-0.0	-0.0	34410.87890625	18382.142578125	-16354.919921875
0.3305	-0.0	-0.0	-0.0	-6.213562488555908	12.388776779174805	-127.75553894042967	-62.436859130859375	-38.11467742919922	-211.84426879882807	-0.0	-0.0	-0.0	-0.0	-0.0	-0.0	41603.06640625	20101.66015625	-16391.181640625
0.331	-0.0	-0.0	-0.0	-12.181685447692873	25.44718360900879	-143.66726684570312	-59.511863708496094	-42.3944091796875	-251.76809692382807	-0.0	-0.0	-0.0	-0.0	-0.0	-0.0	48624.7578125	23002.556640625	-15150.9365234375
0.3315	-0.0	-0.0	-0.0	-15.744728088378906	32.32400894165039	-153.38531494140625	-60.49396896362305	-47.61891174316406	-301.5107727050781	-0.0	-0.0	-0.0	-0.0	-0.0	-0.0	58743.7109375	25473.0546875	-15255.8798828125
0.332	-0.0	-0.0	-0.0	-21.69301986694336	39.04019927978516	-207.8194122314453	-74.3617935180664	-49.977481842041016	-353.4660949707031	-0.0	-0.0	-0.0	-0.0	-0.0	-0.0	70578.78125	27889.501953125	-18477.435546875
0.3325	-0.0	-0.0	-0.0	-34.31696701049805	39.89345550537109	-264.57196044921875	-81.17369079589844	-48.43806838989258	-360.3487548828125	-0.0	-0.0	-0.0	-0.0	-0.0	-0.0	73016.6796875	27527.076171875	-20199.06640625
0.333	-0.0	-0.0	-0.0	-49.89324188232422	45.9675178527832	-292.469970703125	-86.52529907226562	-50.790283203125	-370.873046875	-0.0	-0.0	-0.0	-0.0	-0.0	-0.0	74509.8125	26633.712890625	-22023.107421875
0.3335	-0.0	-0.0	-0.0	-59.90610885620117	50.95468521118164	-301.22564697265625	-91.7969207763672	-51.59416198730469	-374.8978576660156	-0.0	-0.0	-0.0	-0.0	-0.0	-0.0	74800.25	24390.072265625	-22821.51171875
0.334	-0.0	-0.0	-0.0	-61.40822219848633	54.62765884399414	-300.6664733886719	-98.71183776855467	-59.6732063293457	-396.6559448242188	-0.0	-0.0	-0.0	-0.0	-0.0	-0.0	77962.5625	21031.0625	-23975.890625
0.3345	-0.0	-0.0	-0.0	-63.310543060302734	56.48393249511719	-301.4447326660156	-3.5874009132385254	-158.5176239013672	-839.7852783203125	-0.0	-0.0	-0.0	-0.0	-0.0	-0.0	176601.296875	-23112.19921875	6135.205078125
0.335	-0.0	-0.0	-0.0	-65.39213562011719	61.87065505981445	-317.8718566894531	295.5429382324219	-186.57960510253903	-2016.8262939453125	-0.0	-0.0	-0.0	-0.0	-0.0	-0.0	436851.46875	-130477.5390625	71854.609375
0.3355	-0.0	-0.0	-0.0	-55.36552047729492	98.18058013916016	-467.2021179199219	357.303955078125	-104.46695709228516	-1219.9095458984375	-0.0	-0.0	-0.0	-0.0	-0.0	-0.0	267041.6875	-85634.765625	78624.5625
0.336	-0.0	-0.0	-0.0	96.27774047851562	184.7217712402344	-1174.3043212890625	200.24327087402344	-76.56818389892578	-1004.3350219726562	-0.0	-0.0	-0.0	-0.0	-0.0	-0.0	216355.5	-64329.62109375	44303.7421875
0.3365	-0.0	-0.0	-0.0	315.79278564453125	201.0530242919922	-1362.6163330078125	39.9383430480957	-97.2082748413086	-922.2605590820312	-0.0	-0.0	-0.0	-0.0	-0.0	-0.0	199721.578125	-46606.6171875	9541.896484375
0.337	-0.0	-0.0	-0.0	252.50100708007807	128.76303100585938	-883.794677734375	-87.32191467285156	-101.20611572265624	-735.5901489257812	-0.0	-0.0	-0.0	-0.0	-0.0	-0.0	155812.515625	-27814.859375	-16816.14453125
0.3375	-0.0	-0.0	-0.0	100.62603759765624	117.76744842529295	-764.10302734375	-138.60342407226562	-96.7199935913086	-590.092041015625	-0.0	-0.0	-0.0	-0.0	-0.0	-0.0	123547.3671875	-14720.9677734375	-26845.98046875
